HIERARCHY
ROOT Elbow
{
	OFFSET	0.00	0.00	0.00
	CHANNELS 6 Xposition Yposition Zposition Zrotation Xrotation Yrotation
	JOINT L_Wrist
	{
		OFFSET	 0.208349	 0.000000	 0.000000
		CHANNELS 3 Zrotation Xrotation Yrotation
		JOINT L_index_Proximal
		{
			OFFSET	 0.093499	 0.010637	-0.002084
			CHANNELS 3 Zrotation Xrotation Yrotation
			JOINT L_index_b
			{
				OFFSET	 0.033152	 0.000000	 0.000000
				CHANNELS 3 Zrotation Xrotation Yrotation
				JOINT L_index_c
				{
					OFFSET	 0.018651	 0.000000	 0.000000
					CHANNELS 3 Zrotation Xrotation Yrotation
					End Site
					{
						OFFSET	 0.018651	 0.000000	 0.000000
					}
				}
			}
		}
		JOINT L_middle_Proximal
		{
			OFFSET	 0.090632	-0.006115	-0.003750
			CHANNELS 3 Zrotation Xrotation Yrotation
			JOINT L_middle_b
			{
				OFFSET	 0.037194	 0.000000	 0.000000
				CHANNELS 3 Zrotation Xrotation Yrotation
				JOINT L_middle_c
				{
					OFFSET	 0.021943	 0.000000	 0.000000
					CHANNELS 3 Zrotation Xrotation Yrotation
					End Site
					{
						OFFSET	 0.021943	 0.000000	 0.000000
					}
				}
			}
		}
		JOINT L_pinky_Proximal
		{
			OFFSET	 0.074015	-0.035449	-0.000417
			CHANNELS 3 Zrotation Xrotation Yrotation
			JOINT L_pinky_b
			{
				OFFSET	 0.027285	 0.000000	 0.000000
				CHANNELS 3 Zrotation Xrotation Yrotation
				JOINT L_pinky_c
				{
					OFFSET	 0.015093	 0.000000	 0.000000
					CHANNELS 3 Zrotation Xrotation Yrotation
					End Site
					{
						OFFSET	 0.015093	 0.000000	 0.000000
					}
				}
			}
		}
		JOINT L_ring_Proximal
		{
			OFFSET	 0.082801	-0.021859	-0.003750
			CHANNELS 3 Zrotation Xrotation Yrotation
			JOINT L_ring_b
			{
				OFFSET	 0.034478	 0.000000	 0.000000
				CHANNELS 3 Zrotation Xrotation Yrotation
				JOINT L_ring_c
				{
					OFFSET	 0.021377	 0.000000	 0.000000
					CHANNELS 3 Zrotation Xrotation Yrotation
					End Site
					{
						OFFSET	 0.021377	 0.000000	 0.000000
					}
				}
			}
		}
		JOINT L_thumb_Proximal
		{
			OFFSET	 0.030306	 0.018528	 0.004584
			CHANNELS 3 Zrotation Xrotation Yrotation
			JOINT L_thumb_a
			{
				OFFSET	 0.038520	 0.000000	 0.000000
				CHANNELS 3 Zrotation Xrotation Yrotation
				JOINT L_thumb_b
				{
					OFFSET	 0.026310	 0.000000	 0.000000
					CHANNELS 3 Zrotation Xrotation Yrotation
					End Site
					{
						OFFSET	 0.026310	 0.000000	 0.000000
					}
				}
			}
		}
	}
}
MOTION
Frames:    21
Frame Time: 0.01666667
-0.687313	-0.273395	 0.665953	 51.851360	 47.320570	-162.895600	 17.546680	 4.593180	 27.104900	 5.117322	-3.137272	-51.285430	 0.978378	-0.352833	-39.661150	-1.402914	 0.292003	-23.514390	-8.699286	-9.109673	-57.505790	 1.184981	-0.630360	-56.020940	 1.268239	-0.405327	-35.446130	-32.075500	-16.509510	-63.857390	-3.838145	 2.732016	-70.877020	 1.707378	-0.744548	-47.119420	-21.792950	-8.751904	-75.805670	-2.109314	 1.867823	-83.049390	 1.338601	-0.476252	-39.167310	 60.732960	 45.927050	-65.050800	 6.542417	-0.141951	-2.483138	 1.730505	-0.122153	-8.074677
-0.687205	-0.273436	 0.665859	 51.831440	 47.345410	-162.862700	 17.537410	 4.592772	 27.102290	 5.116702	-3.136801	-51.288420	 0.976108	-0.352017	-39.660930	-1.409091	 0.293264	-23.513090	-8.706553	-9.105035	-57.536990	 1.187876	-0.632288	-56.049970	 1.273195	-0.406907	-35.445800	-32.078190	-16.507640	-63.853210	-3.839411	 2.732621	-70.871190	 1.710765	-0.746123	-47.125090	-21.793400	-8.752131	-75.786030	-2.112596	 1.870326	-83.036630	 1.343118	-0.477787	-39.161370	 60.720180	 45.924890	-65.073200	 6.566879	-0.140901	-2.455703	 1.744969	-0.122355	-8.020573
-0.687492	-0.273076	 0.665653	 51.792360	 47.480820	-162.839900	 17.535820	 4.588164	 27.072690	 5.066422	-3.110058	-51.329520	 0.975222	-0.351565	-39.647360	-1.412118	 0.293836	-23.507570	-8.735802	-9.086057	-57.556610	 1.213323	-0.646855	-56.125310	 1.311161	-0.419542	-35.485790	-32.077530	-16.509290	-63.826850	-3.826710	 2.722559	-70.850650	 1.730587	-0.755056	-47.140860	-21.797190	-8.750853	-75.732610	-2.101026	 1.859062	-83.005780	 1.367091	-0.486205	-39.154060	 60.703610	 45.913920	-65.121070	 6.595752	-0.141148	-2.448929	 1.762598	-0.122805	-7.970392
-0.687608	-0.272890	 0.665624	 51.793630	 47.518420	-162.852700	 17.537530	 4.585275	 27.054200	 5.042454	-3.096795	-51.336390	 0.976984	-0.352148	-39.642380	-1.417779	 0.294959	-23.503630	-8.752791	-9.075089	-57.538900	 1.212091	-0.646390	-56.139200	 1.308702	-0.418705	-35.481520	-32.072260	-16.514130	-63.808660	-3.817287	 2.715826	-70.850280	 1.733815	-0.756401	-47.137000	-21.797080	-8.752447	-75.705130	-2.103585	 1.861229	-83.002830	 1.367938	-0.486474	-39.152120	 60.704570	 45.916440	-65.113660	 6.593626	-0.142345	-2.470545	 1.767743	-0.123494	-7.991471
-0.687608	-0.272939	 0.665559	 51.744170	 47.559490	-162.824500	 17.550020	 4.582869	 27.038820	 5.021001	-3.085389	-51.341730	 0.980060	-0.353246	-39.641840	-1.430261	 0.297646	-23.510660	-8.740715	-9.082864	-57.478320	 1.234751	-0.657176	-56.045310	 1.352595	-0.431978	-35.422600	-32.047440	-16.532350	-63.794270	-3.801055	 2.704871	-70.862740	 1.736793	-0.757287	-47.114830	-21.789940	-8.759575	-75.704380	-2.089911	 1.849501	-83.014110	 1.372095	-0.487847	-39.143920	 60.720140	 45.938050	-65.041780	 6.588156	-0.141503	-2.457912	 1.776066	-0.124760	-8.035983
-0.687518	-0.272955	 0.665637	 51.763020	 47.529340	-162.843700	 17.559600	 4.584645	 27.050220	 5.019935	-3.084275	-51.328240	 0.989295	-0.356520	-39.635080	-1.436427	 0.298829	-23.502780	-8.726190	-9.092205	-57.444000	 1.257570	-0.668173	-55.964760	 1.376066	-0.438885	-35.378880	-32.041340	-16.535580	-63.815440	-3.792352	 2.699017	-70.869260	 1.736059	-0.756959	-47.113320	-21.784090	-8.763941	-75.731220	-2.081690	 1.842680	-83.028100	 1.367584	-0.486290	-39.146890	 60.736500	 45.947880	-64.996920	 6.563859	-0.141490	-2.466748	 1.765164	-0.124523	-8.069473
-0.687371	-0.273125	 0.665738	 51.777150	 47.458420	-162.836400	 17.558230	 4.588732	 27.076370	 5.018857	-3.082710	-51.313420	 0.991015	-0.356826	-39.603780	-1.454002	 0.302158	-23.478310	-8.694435	-9.111406	-57.337560	 1.295048	-0.684669	-55.728310	 1.397907	-0.444659	-35.289370	-32.029820	-16.540200	-63.868600	-3.779409	 2.689972	-70.872440	 1.737379	-0.757705	-47.123610	-21.773680	-8.770142	-75.797000	-2.076532	 1.839064	-83.057690	 1.360030	-0.483718	-39.156410	 60.755710	 45.969700	-64.921880	 6.531532	-0.142578	-2.498395	 1.739750	-0.123427	-8.115778
-0.687529	-0.273068	 0.665777	 51.799870	 47.422940	-162.847400	 17.553980	 4.591741	 27.095670	 5.024733	-3.085948	-51.311150	 0.981085	-0.353052	-39.583310	-1.471909	 0.305626	-23.459510	-8.674009	-9.123944	-57.289610	 1.307736	-0.689917	-55.627720	 1.391826	-0.442125	-35.245080	-32.025970	-16.541310	-63.893260	-3.774952	 2.686507	-70.866830	 1.738729	-0.758323	-47.125290	-21.770610	-8.771510	-75.825880	-2.072934	 1.835908	-83.058280	 1.362439	-0.484501	-39.150990	 60.763110	 45.977450	-64.894550	 6.529068	-0.142424	-2.496527	 1.746029	-0.124018	-8.124362
-0.687495	-0.273137	 0.665885	 51.808220	 47.369690	-162.850800	 17.550760	 4.597250	 27.130980	 5.023692	-3.095088	-51.313090	 0.963553	-0.346899	-39.599470	-1.468950	 0.305258	-23.478000	-8.649248	-9.148726	-57.227690	 1.320834	-0.694993	-55.502450	 1.368807	-0.434263	-35.203000	-32.024080	-16.550130	-63.920530	-3.773799	 2.685654	-70.865920	 1.734564	-0.756487	-47.124030	-21.770180	-8.780340	-75.865260	-2.060098	 1.824638	-83.061500	 1.369824	-0.487115	-39.149280	 60.756970	 45.972720	-64.881120	 6.528824	-0.142004	-2.489308	 1.749234	-0.124492	-8.141374
-0.687507	-0.273119	 0.665936	 51.829410	 47.326330	-162.848100	 17.535080	 4.599519	 27.145530	 5.044363	-3.095995	-51.292440	 0.961760	-0.346590	-39.634230	-1.431978	 0.297856	-23.499250	-8.629038	-9.152025	-57.237210	 1.303208	-0.685956	-55.519580	 1.365931	-0.433490	-35.213470	-32.023420	-16.543420	-63.885320	-3.786849	 2.695235	-70.872060	 1.718586	-0.749038	-47.096630	-21.770560	-8.771008	-75.835280	-2.085796	 1.846300	-83.027690	 1.343568	-0.477563	-39.133440	 60.770600	 45.973560	-64.894200	 6.538725	-0.139666	-2.444564	 1.769989	-0.125329	-8.099604
-0.687510	-0.273067	 0.666047	 51.845630	 47.267760	-162.865100	 17.516310	 4.602872	 27.167130	 5.059405	-3.113899	-51.313010	 0.964829	-0.347550	-39.619440	-1.412694	 0.293683	-23.486550	-8.627854	-9.160907	-57.247070	 1.287692	-0.678177	-55.546940	 1.347986	-0.428356	-35.257310	-32.026910	-16.550140	-63.863990	-3.806059	 2.709042	-70.874360	 1.709696	-0.744956	-47.085040	-21.772880	-8.777680	-75.824530	-2.116854	 1.873986	-83.033650	 1.328639	-0.472045	-39.117340	 60.732170	 45.979900	-64.901500	 6.596519	-0.135605	-2.352737	 1.813751	-0.125916	-7.942244
-0.687509	-0.273038	 0.665998	 51.856380	 47.279840	-162.852200	 17.532930	 4.603122	 27.168770	 5.093205	-3.124387	-51.300450	 0.965634	-0.347959	-39.631530	-1.390822	 0.289228	-23.493820	-8.631001	-9.150858	-57.267190	 1.293791	-0.681782	-55.573990	 1.355453	-0.430418	-35.232440	-32.035520	-16.536990	-63.851260	-3.828473	 2.725460	-70.883630	 1.691754	-0.737129	-47.085000	-21.784430	-8.757767	-75.846250	-2.127749	 1.884373	-83.055730	 1.325948	-0.471103	-39.118530	 60.716910	 45.992650	-64.919940	 6.617725	-0.135938	-2.350817	 1.814793	-0.125867	-7.933898
-0.687639	-0.272761	 0.665994	 51.881260	 47.299200	-162.876500	 17.548130	 4.604170	 27.175360	 5.109762	-3.133292	-51.295090	 0.975456	-0.351439	-39.625430	-1.378098	 0.286360	-23.476270	-8.647661	-9.140288	-57.301190	 1.301745	-0.686382	-55.601780	 1.352436	-0.429546	-35.238950	-32.055610	-16.522410	-63.862620	-3.851280	 2.741685	-70.883020	 1.667643	-0.726771	-47.092860	-21.802390	-8.740157	-75.870090	-2.136095	 1.892286	-83.071330	 1.321454	-0.469638	-39.128240	 60.683900	 46.004830	-64.935130	 6.626095	-0.135793	-2.345518	 1.818146	-0.125708	-7.910501
-0.687521	-0.272666	 0.666025	 51.904030	 47.312740	-162.886700	 17.554780	 4.603182	 27.169040	 5.103806	-3.129716	-51.295180	 0.979488	-0.353087	-39.645560	-1.364276	 0.283864	-23.506720	-8.655442	-9.135330	-57.316080	 1.306777	-0.689596	-55.640260	 1.351073	-0.429458	-35.265600	-32.061710	-16.518230	-63.861510	-3.855607	 2.744988	-70.887520	 1.660982	-0.723900	-47.095520	-21.808680	-8.734385	-75.868930	-2.131590	 1.888813	-83.087300	 1.318646	-0.468599	-39.125510	 60.673330	 46.004390	-64.950220	 6.635537	-0.135844	-2.342993	 1.821564	-0.125735	-7.896881
-0.687782	-0.272504	 0.665996	 51.870120	 47.380400	-162.865700	 17.570390	 4.600478	 27.151770	 5.072649	-3.112259	-51.305030	 0.982450	-0.354676	-39.699180	-1.351395	 0.281939	-23.568250	-8.673178	-9.124096	-57.338860	 1.296977	-0.685598	-55.721860	 1.349795	-0.429837	-35.325910	-32.068670	-16.513150	-63.865380	-3.848383	 2.740197	-70.894610	 1.663662	-0.725202	-47.103330	-21.809620	-8.733826	-75.860090	-2.114504	 1.874700	-83.118430	 1.317463	-0.468104	-39.119530	 60.662840	 45.999350	-64.975790	 6.641073	-0.138008	-2.378374	 1.831621	-0.126727	-7.915024
-0.688193	-0.272265	 0.665983	 51.895450	 47.397230	-162.866200	 17.573640	 4.599468	 27.145200	 5.033932	-3.091260	-51.315700	 0.971853	-0.351065	-39.721600	-1.371433	 0.286445	-23.594360	-8.690451	-9.113612	-57.330380	 1.275151	-0.674548	-55.755430	 1.343976	-0.428111	-35.336620	-32.068280	-16.514020	-63.866850	-3.840009	 2.734503	-70.899730	 1.669957	-0.727963	-47.103910	-21.806390	-8.737922	-75.850600	-2.120964	 1.881021	-83.136530	 1.313096	-0.466608	-39.123920	 60.645940	 46.009220	-64.972560	 6.635098	-0.139189	-2.400763	 1.835725	-0.127172	-7.925550
-0.688243	-0.272308	 0.665915	 51.909550	 47.384430	-162.838500	 17.578950	 4.598329	 27.137890	 4.991583	-3.066292	-51.306320	 0.957164	-0.346339	-39.783540	-1.391101	 0.291251	-23.648950	-8.692331	-9.111751	-57.269230	 1.248935	-0.660147	-55.717870	 1.351804	-0.430773	-35.348980	-32.059540	-16.519840	-63.868180	-3.831854	 2.729428	-70.914570	 1.677083	-0.730861	-47.092330	-21.798950	-8.744980	-75.843280	-2.133251	 1.892541	-83.155080	 1.308673	-0.465043	-39.124260	 60.627980	 46.032520	-64.941680	 6.620871	-0.139849	-2.417106	 1.830603	-0.127287	-7.954434
-0.688104	-0.272463	 0.665997	 51.919680	 47.340230	-162.829100	 17.585510	 4.597926	 27.135400	 4.996643	-3.069623	-51.311120	 0.965624	-0.349258	-39.768550	-1.390590	 0.291000	-23.637820	-8.687422	-9.114821	-57.251350	 1.239208	-0.654534	-55.683850	 1.364751	-0.434708	-35.333920	-32.060970	-16.519040	-63.867930	-3.831467	 2.729070	-70.912700	 1.682957	-0.733270	-47.083420	-21.799380	-8.744959	-75.838760	-2.139509	 1.897935	-83.150170	 1.304805	-0.463614	-39.120110	 60.629220	 46.035850	-64.931980	 6.608870	-0.140085	-2.425701	 1.830984	-0.127524	-7.967862
-0.687916	-0.272707	 0.666159	 51.880580	 47.309350	-162.810900	 17.605230	 4.596503	 27.126120	 5.010731	-3.079113	-51.338510	 0.988733	-0.356986	-39.703780	-1.409735	 0.294416	-23.591830	-8.694414	-9.110081	-57.258250	 1.253599	-0.661773	-55.657680	 1.378496	-0.438405	-35.283290	-32.074350	-16.510120	-63.859540	-3.838872	 2.734489	-70.915280	 1.683350	-0.733276	-47.072890	-21.803660	-8.739838	-75.857710	-2.156267	 1.913113	-83.159450	 1.301306	-0.462077	-39.096930	 60.608150	 46.055110	-64.915500	 6.615204	-0.139587	-2.414822	 1.859403	-0.129109	-7.944548
-0.687920	-0.272741	 0.666209	 51.867570	 47.312020	-162.799300	 17.608590	 4.595784	 27.121640	 5.023845	-3.087432	-51.349480	 1.003840	-0.362030	-39.661440	-1.418096	 0.295420	-23.534500	-8.698705	-9.107543	-57.271560	 1.265603	-0.668069	-55.654900	 1.383170	-0.439703	-35.268990	-32.082490	-16.504940	-63.854740	-3.844507	 2.738572	-70.916940	 1.680622	-0.732036	-47.070820	-21.809310	-8.734072	-75.872920	-2.163830	 1.919914	-83.161970	 1.298373	-0.460934	-39.089130	 60.614210	 46.051310	-64.916200	 6.610406	-0.139715	-2.418682	 1.859474	-0.129226	-7.949934
-0.687940	-0.272706	 0.666203	 51.867210	 47.337990	-162.759700	 17.606720	 4.596350	 27.125270	 5.039627	-3.097824	-51.368660	 1.005443	-0.362196	-39.620280	-1.415117	 0.294172	-23.485470	-8.726334	-9.090637	-57.337390	 1.251272	-0.661734	-55.743160	 1.337257	-0.425333	-35.286450	-32.106660	-16.487530	-63.873650	-3.855078	 2.746644	-70.927720	 1.666574	-0.725912	-47.070340	-21.822760	-8.721401	-75.886310	-2.177691	 1.932408	-83.167920	 1.292080	-0.458829	-39.099460	 60.641720	 46.036970	-64.913720	 6.611756	-0.137932	-2.387748	 1.864589	-0.129138	-7.923183
